<svg width="1434" height="1434" viewBox="0 0 1434 1434" fill="none" xmlns="http://www.w3.org/2000/svg">
<rect width="1434" height="1434" fill="#8C41F6"/>
<mask id="mask0_388_11" style="mask-type:alpha" maskUnits="userSpaceOnUse" x="498" y="367" width="627" height="674">
<path d="M1021.34 557.303L759.668 679.999L704.58 703.787V609.887L1021.34 462.15L1124 510.979V895.343L813.504 1040.58L705.832 991.748L1021.34 846.515V557.303Z" fill="white"/>
<path d="M601.916 558.556L914.917 415.828L813.505 367L498 510.98V895.345L601.916 945.425L914.917 800.193V703.789L601.916 847.769V558.556Z" fill="white"/>
</mask>
<g mask="url(#mask0_388_11)">
<path d="M810.027 623.12L548.359 745.816L493.271 769.604V675.704L810.027 527.968L912.691 576.796V961.161L602.195 1106.39L494.523 1057.57L810.027 912.333V623.12Z" fill="white"/>
<path d="M390.607 624.374L703.607 481.645L602.195 432.817L286.69 576.798V961.163L390.607 1011.24L703.607 866.01V769.606L390.607 913.586V624.374Z" fill="white"/>
</g>
</svg>
