<svg width="1008" height="504" viewBox="0 0 1008 504" fill="none" xmlns="http://www.w3.org/2000/svg">
<path d="M13.8322 403V259.875H34.1964L112.963 365.922L102.397 368.035V259.875H128.525V403H107.968L30.3541 296.184L39.9598 294.071V403H13.8322ZM156.23 403V259.875H182.357V403H156.23ZM235.246 403V282.928H198.168V259.875H298.067V282.928H261.565V403H235.246ZM314.011 403V259.875H367.227C376.961 259.875 385.542 261.668 392.97 265.254C400.527 268.712 406.418 273.835 410.645 280.623C414.871 287.283 416.984 295.416 416.984 305.022C416.984 314.883 414.615 323.272 409.876 330.189C405.265 337.105 398.99 342.228 391.049 345.558L423.901 403H394.315L359.158 340.179L376.064 350.169H340.139V403H314.011ZM340.139 327.115H367.611C372.35 327.115 376.448 326.218 379.906 324.425C383.364 322.504 386.054 319.878 387.975 316.548C389.896 313.219 390.857 309.376 390.857 305.022C390.857 300.539 389.896 296.697 387.975 293.495C386.054 290.165 383.364 287.603 379.906 285.81C376.448 283.889 372.35 282.928 367.611 282.928H340.139V327.115ZM511.53 405.305C501.028 405.305 491.23 403.448 482.137 399.734C473.043 396.02 465.103 390.833 458.315 384.173C451.527 377.513 446.211 369.7 442.369 360.735C438.655 351.641 436.798 341.844 436.798 331.341C436.798 320.711 438.655 310.913 442.369 301.948C446.083 292.982 451.334 285.17 458.122 278.51C464.911 271.85 472.851 266.727 481.945 263.141C491.038 259.426 500.9 257.569 511.53 257.569C522.161 257.569 532.023 259.426 541.116 263.141C550.209 266.855 558.15 272.042 564.938 278.702C571.726 285.234 576.977 292.982 580.692 301.948C584.534 310.913 586.455 320.711 586.455 331.341C586.455 341.844 584.534 351.641 580.692 360.735C576.849 369.7 571.534 377.513 564.746 384.173C557.958 390.833 550.017 396.02 540.924 399.734C531.958 403.448 522.161 405.305 511.53 405.305ZM511.53 381.483C518.575 381.483 525.042 380.266 530.934 377.833C536.825 375.271 541.948 371.749 546.303 367.267C550.786 362.784 554.18 357.469 556.485 351.321C558.919 345.174 560.135 338.514 560.135 331.341C560.135 324.169 558.919 317.573 556.485 311.554C554.18 305.406 550.786 300.091 546.303 295.608C541.948 290.997 536.825 287.475 530.934 285.042C525.042 282.608 518.575 281.392 511.53 281.392C504.614 281.392 498.21 282.608 492.319 285.042C486.427 287.475 481.24 290.997 476.758 295.608C472.403 300.091 469.009 305.406 466.576 311.554C464.142 317.573 462.925 324.169 462.925 331.341C462.925 338.514 464.142 345.174 466.576 351.321C469.009 357.469 472.403 362.784 476.758 367.267C481.24 371.749 486.427 375.271 492.319 377.833C498.21 380.266 504.614 381.483 511.53 381.483ZM609.687 403V259.875H635.815V322.312H696.715V259.875H723.035V403H696.715V345.366H635.815V403H609.687ZM805.721 405.305C794.706 405.305 784.908 403 776.327 398.389C767.874 393.779 761.214 387.439 756.347 379.37C751.48 371.301 749.047 362.144 749.047 351.898V259.875H775.174V350.553C775.174 356.444 776.455 361.759 779.017 366.498C781.706 371.237 785.356 374.951 789.967 377.641C794.578 380.202 799.829 381.483 805.721 381.483C811.74 381.483 816.991 380.202 821.474 377.641C826.085 374.951 829.671 371.237 832.232 366.498C834.922 361.759 836.267 356.444 836.267 350.553V259.875H862.394V351.898C862.394 362.144 859.961 371.301 855.094 379.37C850.227 387.439 843.503 393.779 834.922 398.389C826.469 403 816.735 405.305 805.721 405.305ZM888.478 403V259.875H948.802C958.28 259.875 966.349 261.54 973.009 264.87C979.797 268.072 984.984 272.682 988.57 278.702C992.284 284.593 994.141 291.766 994.141 300.219C994.141 306.751 992.348 312.898 988.762 318.662C985.304 324.297 979.733 328.972 972.048 332.686V320.583C979.092 323.272 984.664 326.602 988.762 330.573C992.861 334.543 995.742 338.962 997.407 343.829C999.072 348.696 999.905 353.819 999.905 359.198C999.905 372.902 995.358 383.66 986.265 391.473C977.299 399.158 964.812 403 948.802 403H888.478ZM914.606 379.946H951.492C958.28 379.946 963.659 378.089 967.63 374.375C971.728 370.533 973.777 365.474 973.777 359.198C973.777 352.922 971.728 347.863 967.63 344.021C963.659 340.179 958.28 338.257 951.492 338.257H914.606V379.946ZM914.606 315.396H950.147C955.526 315.396 959.817 313.859 963.019 310.785C966.221 307.583 967.822 303.485 967.822 298.49C967.822 293.495 966.221 289.524 963.019 286.579C959.817 283.633 955.526 282.16 950.147 282.16H914.606V315.396Z" fill="black"/>
<mask id="mask0_388_2" style="mask-type:alpha" maskUnits="userSpaceOnUse" x="435" y="0" width="181" height="195">
<path d="M586.075 54.936L510.537 90.3556L494.635 97.2226V70.1158L586.075 27.4678L615.712 41.5633V152.52L526.079 194.446L494.996 180.35L586.075 138.425V54.936Z" fill="white"/>
<path d="M464.998 55.2979L555.354 14.0955L526.079 0L435 41.5638V152.521L464.998 166.978L555.354 125.053V97.2231L464.998 138.787V55.2979Z" fill="white"/>
</mask>
<g mask="url(#mask0_388_2)">
<path d="M525.075 73.936L449.537 109.356L433.635 116.223V89.1158L525.075 46.4678L554.712 60.5633V171.52L465.079 213.446L433.996 199.35L525.075 157.425V73.936Z" fill="black"/>
<path d="M403.998 74.2979L494.354 33.0955L465.079 19L374 60.5638V171.521L403.998 185.978L494.354 144.053V116.223L403.998 157.787V74.2979Z" fill="black"/>
</g>
<path d="M248.622 492V456.957H254.172V492H248.622ZM261.438 492V456.957H265.906L285.568 484.098L283.451 484.427V456.957H288.955V492H284.486L264.966 464.671L266.988 464.295V492H261.438ZM313.238 492.564C310.698 492.564 308.331 492.11 306.136 491.2C303.972 490.291 302.059 489.021 300.397 487.39C298.767 485.76 297.481 483.847 296.54 481.652C295.631 479.457 295.176 477.058 295.176 474.455C295.176 471.852 295.631 469.453 296.54 467.258C297.481 465.032 298.767 463.119 300.397 461.52C302.028 459.889 303.941 458.635 306.136 457.757C308.331 456.847 310.698 456.392 313.238 456.392C315.81 456.392 318.177 456.847 320.341 457.757C322.536 458.635 324.449 459.889 326.08 461.52C327.742 463.15 329.027 465.063 329.937 467.258C330.846 469.453 331.301 471.852 331.301 474.455C331.301 477.058 330.831 479.457 329.89 481.652C328.98 483.847 327.71 485.76 326.08 487.39C324.449 489.021 322.536 490.291 320.341 491.2C318.146 492.11 315.779 492.564 313.238 492.564ZM313.238 487.484C315.057 487.484 316.719 487.155 318.224 486.497C319.761 485.838 321.094 484.929 322.223 483.768C323.352 482.577 324.23 481.197 324.857 479.629C325.484 478.03 325.798 476.305 325.798 474.455C325.798 472.605 325.484 470.896 324.857 469.328C324.23 467.76 323.352 466.38 322.223 465.189C321.094 463.997 319.761 463.072 318.224 462.413C316.719 461.755 315.057 461.425 313.238 461.425C311.42 461.425 309.742 461.755 308.205 462.413C306.7 463.072 305.383 463.997 304.254 465.189C303.125 466.38 302.247 467.76 301.62 469.328C301.024 470.896 300.726 472.605 300.726 474.455C300.726 476.305 301.024 478.03 301.62 479.629C302.247 481.197 303.125 482.577 304.254 483.768C305.383 484.929 306.716 485.838 308.252 486.497C309.789 487.155 311.451 487.484 313.238 487.484ZM345.901 492L333.483 456.957H339.457L349.617 486.873H348.441L358.555 456.957H364.528L352.11 492H345.901ZM363.204 492L375.527 456.957H382.395L394.719 492H388.792L386.111 484.145H371.858L369.13 492H363.204ZM373.458 479.206H384.418L378.209 460.861H379.761L373.458 479.206ZM413.774 492.564C411.297 492.564 408.992 492.11 406.86 491.2C404.759 490.291 402.924 489.037 401.356 487.437C399.82 485.807 398.612 483.894 397.734 481.699C396.856 479.504 396.417 477.089 396.417 474.455C396.417 471.852 396.841 469.453 397.687 467.258C398.565 465.032 399.788 463.119 401.356 461.52C402.924 459.889 404.759 458.635 406.86 457.757C408.961 456.847 411.266 456.392 413.774 456.392C416.252 456.392 418.462 456.816 420.407 457.662C422.382 458.509 424.044 459.622 425.393 461.002C426.741 462.351 427.713 463.824 428.309 465.424L423.323 467.776C422.57 465.894 421.363 464.373 419.701 463.213C418.07 462.021 416.095 461.425 413.774 461.425C411.454 461.425 409.4 461.974 407.612 463.072C405.825 464.169 404.429 465.69 403.426 467.634C402.454 469.579 401.968 471.852 401.968 474.455C401.968 477.058 402.454 479.347 403.426 481.322C404.429 483.267 405.825 484.788 407.612 485.885C409.4 486.951 411.454 487.484 413.774 487.484C416.095 487.484 418.07 486.904 419.701 485.744C421.363 484.584 422.57 483.063 423.323 481.181L428.309 483.533C427.713 485.101 426.741 486.575 425.393 487.955C424.044 489.335 422.382 490.448 420.407 491.294C418.462 492.141 416.252 492.564 413.774 492.564ZM414.339 503.054C413.461 503.054 412.536 502.913 411.563 502.631C410.591 502.348 409.776 501.941 409.117 501.408L410.34 498.209C410.811 498.585 411.328 498.868 411.893 499.056C412.489 499.275 413.069 499.385 413.633 499.385C414.323 499.385 414.856 499.228 415.232 498.915C415.64 498.601 415.844 498.178 415.844 497.645C415.844 497.017 415.468 496.516 414.715 496.139C413.994 495.763 412.865 495.496 411.328 495.34L412.363 491.53H415.656L415.138 493.552C416.8 493.803 418.07 494.321 418.948 495.104C419.858 495.888 420.312 496.876 420.312 498.068C420.312 499.542 419.764 500.733 418.666 501.643C417.569 502.583 416.126 503.054 414.339 503.054ZM430.912 492L443.236 456.957H450.103L462.427 492H456.501L453.819 484.145H439.567L436.839 492H430.912ZM441.166 479.206H452.126L445.917 460.861H447.469L441.166 479.206ZM449.915 452.3C449.069 452.3 448.363 452.159 447.799 451.877C447.266 451.595 446.795 451.281 446.387 450.936C446.011 450.591 445.619 450.278 445.212 449.995C444.835 449.713 444.381 449.572 443.847 449.572C443.314 449.572 442.907 449.776 442.624 450.183C442.342 450.591 442.201 451.234 442.201 452.112H438.015C438.015 449.792 438.532 448.082 439.567 446.985C440.602 445.856 441.888 445.292 443.424 445.292C444.302 445.292 445.008 445.433 445.541 445.715C446.105 445.966 446.591 446.279 446.999 446.656C447.407 447.001 447.799 447.314 448.175 447.596C448.583 447.847 449.037 447.973 449.539 447.973C450.135 447.973 450.558 447.753 450.809 447.314C451.091 446.875 451.232 446.264 451.232 445.48H455.372C455.372 447.675 454.839 449.368 453.772 450.56C452.738 451.72 451.452 452.3 449.915 452.3ZM482.188 492.564C479.648 492.564 477.281 492.11 475.086 491.2C472.922 490.291 471.009 489.021 469.347 487.39C467.716 485.76 466.431 483.847 465.49 481.652C464.581 479.457 464.126 477.058 464.126 474.455C464.126 471.852 464.581 469.453 465.49 467.258C466.431 465.032 467.716 463.119 469.347 461.52C470.978 459.889 472.891 458.635 475.086 457.757C477.281 456.847 479.648 456.392 482.188 456.392C484.76 456.392 487.127 456.847 489.291 457.757C491.486 458.635 493.399 459.889 495.03 461.52C496.692 463.15 497.977 465.063 498.887 467.258C499.796 469.453 500.251 471.852 500.251 474.455C500.251 477.058 499.78 479.457 498.84 481.652C497.93 483.847 496.66 485.76 495.03 487.39C493.399 489.021 491.486 490.291 489.291 491.2C487.096 492.11 484.728 492.564 482.188 492.564ZM482.188 487.484C484.007 487.484 485.669 487.155 487.174 486.497C488.711 485.838 490.044 484.929 491.173 483.768C492.301 482.577 493.179 481.197 493.807 479.629C494.434 478.03 494.747 476.305 494.747 474.455C494.747 472.605 494.434 470.896 493.807 469.328C493.179 467.76 492.301 466.38 491.173 465.189C490.044 463.997 488.711 463.072 487.174 462.413C485.669 461.755 484.007 461.425 482.188 461.425C480.37 461.425 478.692 461.755 477.155 462.413C475.65 463.072 474.333 463.997 473.204 465.189C472.075 466.38 471.197 467.76 470.57 469.328C469.974 470.896 469.676 472.605 469.676 474.455C469.676 476.305 469.974 478.03 470.57 479.629C471.197 481.197 472.075 482.577 473.204 483.768C474.333 484.929 475.666 485.838 477.202 486.497C478.739 487.155 480.401 487.484 482.188 487.484ZM514.679 492V456.957H537.774V461.896H520.229V471.962H536.834V476.901H520.229V487.061H537.774V492H514.679ZM542.929 492V456.957H548.103L561.274 475.208H558.687L571.622 456.957H576.796V492H571.293V463.495L573.362 464.06L560.145 482.122H559.58L546.645 464.06L548.48 463.495V492H542.929ZM592.264 492V456.957H615.359V461.896H597.814V471.962H614.418V476.901H597.814V487.061H615.359V492H592.264ZM637.541 492.564C635.001 492.564 632.634 492.11 630.439 491.2C628.275 490.291 626.362 489.021 624.7 487.39C623.069 485.76 621.784 483.847 620.843 481.652C619.934 479.457 619.479 477.058 619.479 474.455C619.479 471.852 619.934 469.453 620.843 467.258C621.784 465.032 623.069 463.119 624.7 461.52C626.331 459.889 628.244 458.635 630.439 457.757C632.634 456.847 635.001 456.392 637.541 456.392C640.113 456.392 642.48 456.847 644.644 457.757C646.839 458.635 648.752 459.889 650.383 461.52C652.045 463.15 653.33 465.063 654.24 467.258C655.149 469.453 655.604 471.852 655.604 474.455C655.604 477.058 655.133 479.457 654.193 481.652C653.283 483.847 652.013 485.76 650.383 487.39C648.752 489.021 646.839 490.291 644.644 491.2C642.449 492.11 640.081 492.564 637.541 492.564ZM637.541 487.484C639.36 487.484 641.022 487.155 642.527 486.497C644.064 485.838 645.397 484.929 646.526 483.768C647.654 482.577 648.532 481.197 649.16 479.629C649.787 478.03 650.1 476.305 650.1 474.455C650.1 472.605 649.787 470.896 649.16 469.328C648.532 467.76 647.654 466.38 646.526 465.189C645.397 463.997 644.064 463.072 642.527 462.413C641.022 461.755 639.36 461.425 637.541 461.425C635.723 461.425 634.045 461.755 632.508 462.413C631.003 463.072 629.686 463.997 628.557 465.189C627.428 466.38 626.55 467.76 625.923 469.328C625.327 470.896 625.029 472.605 625.029 474.455C625.029 476.305 625.327 478.03 625.923 479.629C626.55 481.197 627.428 482.577 628.557 483.768C629.686 484.929 631.019 485.838 632.555 486.497C634.092 487.155 635.754 487.484 637.541 487.484ZM646.337 496.233L634.86 477.983H640.787L652.311 496.233H646.337ZM674.933 492.564C672.33 492.564 670.01 492.016 667.971 490.918C665.964 489.821 664.381 488.315 663.221 486.403C662.092 484.49 661.527 482.31 661.527 479.864V456.957H667.078V479.629C667.078 481.166 667.407 482.53 668.066 483.721C668.755 484.913 669.68 485.838 670.841 486.497C672.032 487.155 673.396 487.484 674.933 487.484C676.501 487.484 677.865 487.155 679.025 486.497C680.217 485.838 681.142 484.913 681.801 483.721C682.49 482.53 682.835 481.166 682.835 479.629V456.957H688.339V479.864C688.339 482.31 687.774 484.49 686.645 486.403C685.516 488.315 683.933 489.821 681.895 490.918C679.888 492.016 677.567 492.564 674.933 492.564ZM695.296 492V456.957H700.847V492H695.296ZM708.112 492V456.957H720.859C723.211 456.957 725.281 457.396 727.068 458.274C728.887 459.121 730.298 460.375 731.302 462.037C732.305 463.668 732.807 465.628 732.807 467.917C732.807 470.175 732.29 472.119 731.255 473.749C730.251 475.38 728.856 476.634 727.068 477.512C725.281 478.39 723.211 478.829 720.859 478.829H713.663V492H708.112ZM713.663 473.89H721.001C722.255 473.89 723.352 473.64 724.293 473.138C725.234 472.636 725.971 471.946 726.504 471.068C727.037 470.159 727.304 469.093 727.304 467.87C727.304 466.647 727.037 465.596 726.504 464.718C725.971 463.809 725.234 463.119 724.293 462.648C723.352 462.147 722.255 461.896 721.001 461.896H713.663V473.89ZM738.521 492V456.957H761.617V461.896H744.072V471.962H760.676V476.901H744.072V487.061H761.617V492H738.521Z" fill="black"/>
</svg>
